<svg width="453" height="558" viewBox="0 0 453 558" fill="none" xmlns="http://www.w3.org/2000/svg">
<rect width="453" height="558" rx="5" fill="url(#paint0_linear_1_52)"/>
<g clip-path="url(#clip0_1_52)">
<path d="M121 306.662V251.328H130.79V306.662H121Z" fill="white"/>
<path d="M138.571 261.336V251.328H148.518V261.336H138.571ZM138.634 306.662V266.565H148.424V306.662H138.634Z" fill="white"/>
<path d="M191.288 279.78V306.629H181.498V282.892C181.498 278.401 179.458 274.488 174.124 274.488C168.789 274.488 166.122 278.401 166.122 282.892V306.629H156.332V266.564H166.122V271.28C168.632 267.912 172.931 265.345 177.889 265.345C186.047 265.345 191.288 270.863 191.288 279.78Z" fill="white"/>
<path d="M198.725 306.662V251.328H208.515V283.887L223.263 266.565H234.622L219.498 283.566L235.501 306.662H224.299L213.254 289.981L208.547 295.178V306.63H198.757L198.725 306.662Z" fill="white"/>
<path d="M237.79 306.662V251.328H247.581V283.887L262.328 266.565H273.687L258.563 283.566L274.566 306.662H263.364L252.319 289.981L247.612 295.178V306.63H237.822L237.79 306.662Z" fill="white"/>
<path d="M276.794 261.336V251.328H286.741V261.336H276.794ZM276.857 306.662V266.565H286.647V306.662H276.857Z" fill="white"/>
<path d="M304.312 306.982C300.233 306.982 297.722 304.256 297.722 299.861V274.199H290.505V266.917C298.256 266.596 299.605 263.325 299.668 254.664H307.042V266.596H316.455V274.199H307.356V296.557C307.356 298.225 307.983 299.027 309.866 299.027H316.455V306.95H304.312V306.982Z" fill="white"/>
</g>
<path d="M322.053 296.547V306.556H332V296.547H322.053Z" fill="white"/>
<defs>
<linearGradient id="paint0_linear_1_52" x1="226.5" y1="43.9056" x2="226.5" y2="558" gradientUnits="userSpaceOnUse">
<stop stop-color="white"/>
<stop offset="0.41" stop-color="#9AA9B8"/>
<stop offset="1" stop-color="#242930"/>
</linearGradient>
<clipPath id="clip0_1_52">
<rect width="195.488" height="55.6548" fill="white" transform="translate(121 251.328)"/>
</clipPath>
</defs>
</svg>
