<svg width="292" height="69" viewBox="0 0 292 69" fill="none" xmlns="http://www.w3.org/2000/svg">
<path d="M88.093 45.7295H84.6793V23.5408H93.9272C98.8304 23.5408 101.468 25.8372 101.468 29.9336C101.468 32.7576 99.7614 34.8058 97.3098 35.3644V35.4265C102.461 36.3885 100.568 45.1399 101.779 45.5123V45.7295H98.1167C97.1236 44.7985 99.2339 37.0402 93.8031 37.0402H88.093V45.7295ZM88.093 34.092H93.1824C96.3168 34.092 98.0236 32.7266 98.0236 30.1819C98.0236 27.7923 96.6581 26.4889 93.2445 26.4889H88.093V34.092ZM108.368 46.164C105.202 46.164 103.185 44.333 103.185 41.6331C103.185 38.0953 105.854 37.0402 109.795 36.2954C112.278 35.8299 113.798 35.5196 113.798 33.9679C113.798 32.8197 113.116 31.8577 110.788 31.8577C108.026 31.8577 107.188 32.7266 107.033 34.8368H103.93C104.085 31.7956 106.071 29.406 110.912 29.406C114.171 29.406 116.778 30.7715 116.778 34.8679V42.1296C116.778 43.2779 116.933 43.8675 117.522 43.8675C117.615 43.8675 117.709 43.8675 117.895 43.8365V45.6985C117.367 45.8226 116.84 45.8847 116.343 45.8847C114.822 45.8847 114.016 45.295 113.829 43.4951H113.767C112.743 45.1399 110.943 46.164 108.368 46.164ZM109.05 43.7123C111.781 43.7123 113.798 42.3158 113.798 39.5539V37.2885C113.302 37.754 111.936 38.0953 110.323 38.4367C107.53 38.9953 106.35 39.7711 106.35 41.4159C106.35 42.9055 107.157 43.7123 109.05 43.7123ZM123.271 27.0785H119.827V23.789H123.271V27.0785ZM123.054 45.7295H120.013V29.9026H123.054V45.7295ZM134.319 29.4371C137.236 29.4371 139.595 31.1129 139.595 34.7437V45.7295H136.554V35.5816C136.554 33.4714 135.623 32.0438 133.326 32.0438C130.719 32.0438 129.044 33.6265 129.044 36.0161V45.7295H126.002V29.9026H129.044V31.8887H129.106C129.944 30.6784 131.588 29.4371 134.319 29.4371ZM145.994 45.7295H142.58V23.5408H145.994V32.8197H156.887V23.5408H160.331V45.7295H156.887V35.7678H145.994V45.7295ZM167.814 46.164C164.649 46.164 162.632 44.333 162.632 41.6331C162.632 38.0953 165.301 37.0402 169.242 36.2954C171.725 35.8299 173.245 35.5196 173.245 33.9679C173.245 32.8197 172.562 31.8577 170.235 31.8577C167.473 31.8577 166.635 32.7266 166.48 34.8368H163.377C163.532 31.7956 165.518 29.406 170.359 29.406C173.618 29.406 176.224 30.7715 176.224 34.8679V42.1296C176.224 43.2779 176.38 43.8675 176.969 43.8675C177.062 43.8675 177.155 43.8675 177.342 43.8365V45.6985C176.814 45.8226 176.286 45.8847 175.79 45.8847C174.269 45.8847 173.462 45.295 173.276 43.4951H173.214C172.19 45.1399 170.39 46.164 167.814 46.164ZM168.497 43.7123C171.228 43.7123 173.245 42.3158 173.245 39.5539V37.2885C172.749 37.754 171.383 38.0953 169.769 38.4367C166.976 38.9953 165.797 39.7711 165.797 41.4159C165.797 42.9055 166.604 43.7123 168.497 43.7123ZM186.814 29.5302C187.373 29.5302 187.807 29.5612 188.273 29.6233V32.5404C187.901 32.4783 187.621 32.4473 187.249 32.4473C184.487 32.4473 182.501 34.5265 182.501 37.5367V45.7295H179.46V29.9026H182.501V32.9128H182.563C183.401 30.9267 184.673 29.5302 186.814 29.5302ZM197.355 45.7295H193.941L188.293 29.9026H191.552L195.71 42.5951H195.741L199.838 29.9026H203.003L197.355 45.7295ZM218.479 37.4747C218.479 37.9091 218.479 38.3746 218.448 38.6229H206.283C206.345 41.2607 207.896 43.7123 211.031 43.7123C213.824 43.7123 214.91 41.9124 215.189 40.8573H218.293C217.455 43.8985 215.127 46.195 210.969 46.195C205.941 46.195 203.148 42.6262 203.148 37.785C203.148 32.8197 206.127 29.406 210.969 29.406C215.779 29.406 218.479 32.5714 218.479 37.4747ZM206.283 36.2333H215.313C215.313 33.7507 213.575 31.8887 210.876 31.8887C208.331 31.8887 206.469 33.6265 206.283 36.2333ZM226.82 46.164C222.01 46.164 219.62 43.6813 219.527 40.4538H222.599C222.723 42.2848 223.841 43.7123 226.789 43.7123C229.458 43.7123 230.171 42.5331 230.171 41.3848C230.171 39.3987 228.061 39.1815 226.013 38.747C223.251 38.0953 220.086 37.2885 220.086 33.9989C220.086 31.268 222.289 29.4371 226.106 29.4371C230.451 29.4371 232.53 31.7646 232.747 34.4955H229.675C229.458 33.2852 228.806 31.8887 226.168 31.8887C224.12 31.8887 223.251 32.6955 223.251 33.8748C223.251 35.5196 225.02 35.6747 227.254 36.1713C230.171 36.854 233.337 37.6919 233.337 41.2297C233.337 44.302 230.978 46.164 226.82 46.164ZM240.922 43.402C241.45 43.402 241.698 43.371 242.225 43.2779V45.7295C241.45 45.8847 240.953 45.9157 240.301 45.9157C237.695 45.9157 236.112 44.9226 236.112 41.2607V32.4162H233.815V29.9026H236.112V24.8131H239.153V29.9026H242.194V32.4162H239.153V41.3538C239.153 43.0296 239.619 43.402 240.922 43.402ZM247.518 27.0785H244.073V23.789H247.518V27.0785ZM247.301 45.7295H244.26V29.9026H247.301V45.7295ZM258.566 29.4371C261.483 29.4371 263.842 31.1129 263.842 34.7437V45.7295H260.8V35.5816C260.8 33.4714 259.869 32.0438 257.573 32.0438C254.966 32.0438 253.29 33.6265 253.29 36.0161V45.7295H250.249V29.9026H253.29V31.8887H253.353C254.19 30.6784 255.835 29.4371 258.566 29.4371ZM277.836 31.7646V29.9026H280.877V44.4882C280.877 49.2673 277.991 51.4086 273.46 51.4086C268.929 51.4086 266.664 49.2362 266.354 46.3812H269.519C269.829 47.8087 270.885 48.9259 273.46 48.9259C276.346 48.9259 277.836 47.6536 277.836 44.6744V42.5331H277.774C276.905 43.8054 275.446 44.9226 272.902 44.9226C268.961 44.9226 265.919 42.2538 265.919 37.1954C265.919 32.1059 268.961 29.4371 272.902 29.4371C275.446 29.4371 276.905 30.6474 277.774 31.7646H277.836ZM273.46 42.4089C276.191 42.4089 277.805 40.64 277.805 37.1954C277.805 33.7196 276.191 31.9818 273.46 31.9818C270.481 31.9818 269.085 34.2162 269.085 37.1954C269.085 40.1745 270.481 42.4089 273.46 42.4089Z" fill="white"/>
<path d="M285.187 25.5396H284.64V22.4835H283.501V22.0152H286.326V22.4835H285.187V25.5396ZM287.206 25.5396H286.673V22.0152H287.388L288.403 24.7854H288.413L289.434 22.0152H290.148V25.5396H289.616V22.8039H289.606L288.635 25.5396H288.187L287.215 22.8039H287.206V25.5396Z" fill="white"/>
<path d="M34.3265 48.7674C42.1771 48.7674 48.5413 42.3429 48.5413 34.4179C48.5413 26.4928 42.1771 20.0684 34.3265 20.0684C26.4759 20.0684 20.1117 26.4928 20.1117 34.4179C20.1117 42.3429 26.4759 48.7674 34.3265 48.7674Z" fill="white"/>
<path d="M34.3054 48.6929C42.156 48.6929 48.5202 42.2684 48.5202 34.3434C48.5202 26.4184 42.156 19.9939 34.3054 19.9939C26.4548 19.9939 20.0906 26.4184 20.0906 34.3434C20.0906 42.2684 26.4548 48.6929 34.3054 48.6929Z" fill="white"/>
<path d="M49.7598 45.651C49.7598 47.0031 51.1694 47.8808 52.3682 47.2779C57.0494 44.9285 60.2683 40.0522 60.2683 34.4179C60.2683 28.7836 57.0494 23.9029 52.3638 21.5579C51.165 20.955 49.7554 21.8327 49.7554 23.1848V45.651H49.7598Z" fill="white"/>
<path d="M61.4822 44.3739C61.4822 45.3181 62.5844 45.8191 63.287 45.194C66.2468 42.5653 68.1131 38.713 68.1131 34.4219C68.1131 30.1308 66.2512 26.283 63.2958 23.6543C62.5932 23.0292 61.491 23.5301 61.491 24.4744V44.3784L61.4822 44.3739Z" fill="white"/>
<path d="M23.2007 50.0921C21.8613 50.0921 20.9918 51.5151 21.589 52.7253C23.9165 57.4508 28.7469 60.7002 34.3284 60.7002C39.9098 60.7002 44.7447 57.4508 47.0677 52.7208C47.6649 51.5106 46.7954 50.0876 45.4561 50.0876H23.2007V50.0921Z" fill="white"/>
<path d="M51.692 59.3392C54.8318 57.8498 57.3392 55.2343 58.7137 52.0071C59.1002 51.0984 58.4371 50.0876 57.4578 50.0876H51.1167C50.3658 50.0876 49.7554 50.7038 49.7554 51.4663V58.0891C49.7554 59.0954 50.7917 59.7648 51.692 59.3392Z" fill="white"/>
<path d="M62.8536 56.777C64.4609 55.2432 65.7168 53.3326 66.4765 51.187C66.6653 50.6506 66.2789 50.0876 65.7124 50.0876H62.2915C61.8436 50.0876 61.4791 50.4556 61.4791 50.9077V56.1874C61.4791 56.91 62.331 57.2735 62.8492 56.7814L62.8536 56.777Z" fill="white"/>
<path d="M24.4682 62.0479C23.5328 62.0479 23.0366 63.1605 23.6558 63.8698C26.2599 66.8576 30.076 68.7416 34.3268 68.7416C38.5776 68.7416 42.3893 66.862 44.9934 63.8787C45.6126 63.1694 45.1164 62.0567 44.181 62.0567H24.4638L24.4682 62.0479Z" fill="white"/>
<path d="M50.8472 67.8629C53.2932 66.9586 55.423 65.3937 57.0259 63.3856C57.4562 62.8492 57.0786 62.0513 56.3935 62.0513H50.5618C50.1139 62.0513 49.7494 62.4148 49.7494 62.8669V67.0915C49.7494 67.659 50.3115 68.0579 50.8428 67.8585L50.8472 67.8629Z" fill="white"/>
<path d="M62.0574 65.8415C63.2431 64.9371 64.2839 63.8511 65.1402 62.6187C65.307 62.3793 65.1314 62.0513 64.846 62.0513H61.8423C61.6447 62.0513 61.4822 62.2109 61.4822 62.4148V65.5533C61.4866 65.8503 61.8247 66.0232 62.0618 65.8459L62.0574 65.8415Z" fill="white"/>
<path d="M18.6195 23.1103C18.6195 21.7583 17.2099 20.8805 16.011 21.4834C11.3298 23.8329 8.11096 28.7092 8.11096 34.3434C8.11096 39.9777 11.3298 44.8584 16.0154 47.2035C17.2142 47.8064 18.6239 46.9286 18.6239 45.5766V23.1103H18.6195Z" fill="white"/>
<path d="M6.63095 24.3889C6.63095 23.4447 5.52872 22.9438 4.8261 23.5688C1.86633 26.1976 0 30.0498 0 34.3409C0 38.632 1.86194 42.4798 4.81732 45.1086C5.51993 45.7336 6.62216 45.2327 6.62216 44.2885V24.3845L6.63095 24.3889Z" fill="white"/>
<path d="M45.432 18.6667C46.7714 18.6667 47.6409 17.2437 47.0436 16.0335C44.7162 11.308 39.8857 8.05859 34.3043 8.05859C28.7229 8.05859 23.888 11.308 21.565 16.0379C20.9678 17.2481 21.8372 18.6711 23.1766 18.6711H45.432V18.6667Z" fill="white"/>
<path d="M16.6896 9.42079C13.5498 10.9103 11.0423 13.5257 9.66783 16.7529C9.28139 17.6617 9.94449 18.6724 10.9238 18.6724H17.2649C18.0158 18.6724 18.6262 18.0562 18.6262 17.2937V10.6709C18.6262 9.66461 17.5898 8.99523 16.6896 9.42079Z" fill="white"/>
<path d="M5.26099 11.981C3.65376 13.5148 2.39783 15.4254 1.63812 17.571C1.44929 18.1074 1.83573 18.6703 2.40222 18.6703H5.82309C6.271 18.6703 6.63549 18.3024 6.63549 17.8502V12.5706C6.63549 11.848 5.78356 11.4845 5.26538 11.9766L5.26099 11.981Z" fill="white"/>
<path d="M44.1629 6.71058C45.0983 6.71058 45.5945 5.59791 44.9753 4.88863C42.3713 1.90525 38.5552 0.0212402 34.3043 0.0212402C30.0535 0.0212402 26.2418 1.90082 23.6377 4.8842C23.0186 5.59347 23.5148 6.70615 24.4501 6.70615H44.1673L44.1629 6.71058Z" fill="white"/>
<path d="M17.5312 0.897036C15.0852 1.80136 12.9554 3.3662 11.3526 5.37433C10.9222 5.91072 11.2999 6.70865 11.9849 6.70865H17.8166C18.2646 6.70865 18.629 6.34515 18.629 5.89298V1.66394C18.629 1.09652 18.067 0.697553 17.5356 0.897036H17.5312Z" fill="white"/>
<path d="M6.0559 2.91607C4.87023 3.82039 3.82948 4.90647 2.97317 6.13883C2.80629 6.37821 2.98195 6.70625 3.26739 6.70625H6.27107C6.46868 6.70625 6.63116 6.54666 6.63116 6.34275V3.20421C6.62677 2.9072 6.28864 2.73431 6.05151 2.91163L6.0559 2.91607Z" fill="white"/>
<path d="M22.8906 50.2308C21.5512 50.2308 20.6817 51.6537 21.279 52.8639C23.6064 57.5895 28.4369 60.8388 34.0183 60.8388C39.5997 60.8388 44.4346 57.5895 46.7576 52.8595C47.3549 51.6493 46.4854 50.2263 45.146 50.2263H22.8906V50.2308Z" fill="white"/>
<path d="M24.1611 62.0654C23.2257 62.0654 22.7295 63.1781 23.3487 63.8874C25.9528 66.8752 29.7688 68.7592 34.0197 68.7592C38.2705 68.7592 42.0822 66.8796 44.6863 63.8962C45.3055 63.187 44.8092 62.0743 43.8739 62.0743H24.1567L24.1611 62.0654Z" fill="white"/>
<path d="M18.493 23.4192C18.493 22.0671 17.0834 21.1894 15.8845 21.7923C11.2034 24.1417 7.9845 29.018 7.9845 34.6523C7.9845 40.2866 11.2034 45.1673 15.8889 47.5123C17.0878 48.1152 18.4974 47.2375 18.4974 45.8854V23.4192H18.493Z" fill="white"/>
<path d="M9.32985 52.1813C10.8053 55.3508 13.3962 57.882 16.5932 59.2696C17.4934 59.6597 18.4946 58.9903 18.4946 58.0017V51.6005C18.4946 50.8425 17.8842 50.2263 17.1289 50.2263H10.5682C9.57137 50.2263 8.90828 51.2725 9.32985 52.1813Z" fill="white"/>
<path d="M11.8706 63.4493C13.39 65.0717 15.2827 66.3396 17.4081 67.1065C17.9394 67.2971 18.4971 66.907 18.4971 66.3351V62.8819C18.4971 62.4297 18.1326 62.0618 17.6847 62.0618H12.4546C11.7388 62.0618 11.3787 62.9218 11.8662 63.4448L11.8706 63.4493Z" fill="white"/>
<path d="M6.64768 24.7014C6.64768 23.7572 5.54545 23.2563 4.84283 23.8813C1.88745 26.5145 0.0211182 30.3623 0.0211182 34.6578C0.0211182 38.9534 1.88305 42.7968 4.83844 45.4255C5.54105 46.0506 6.64328 45.5496 6.64328 44.6054V24.7014H6.64768Z" fill="white"/>
<path d="M0.885561 51.3307C1.7814 53.7998 3.33155 55.9498 5.32083 57.5678C5.85219 58.0023 6.64263 57.621 6.64263 56.9295V51.0425C6.64263 50.5903 6.28254 50.2224 5.83462 50.2224H1.64527C1.08317 50.2224 0.68795 50.7898 0.885561 51.3262V51.3307Z" fill="white"/>
<path d="M2.89033 62.6461C3.78617 63.843 4.86205 64.8937 6.08284 65.7581C6.31998 65.9265 6.64494 65.7492 6.64494 65.4611V62.4289C6.64494 62.2295 6.48685 62.0654 6.28485 62.0654H3.17577C2.88155 62.0699 2.71028 62.4112 2.88594 62.6506L2.89033 62.6461Z" fill="white"/>
<path d="M45.2213 18.7946C46.5607 18.7946 47.4302 17.3716 46.8329 16.1614C44.5055 11.4359 39.675 8.18652 34.0936 8.18652C28.5122 8.18652 23.6773 11.4359 21.3543 16.1659C20.7571 17.3761 21.6266 18.799 22.9659 18.799H45.2213V18.7946Z" fill="white"/>
<path d="M43.9582 6.69377C44.8936 6.69377 45.3898 5.5811 44.7706 4.87182C42.1666 1.88401 38.3505 0 34.0996 0C29.8488 0 26.0371 1.87958 23.433 4.86296C22.8138 5.57223 23.3101 6.68491 24.2454 6.68491H43.9626L43.9582 6.69377Z" fill="white"/>
<path d="M49.6243 45.8639C49.6243 47.216 51.0339 48.0937 52.2327 47.4908C56.9139 45.1414 60.1328 40.2651 60.1328 34.6308C60.1328 28.9965 56.9139 24.1158 52.2283 21.7708C51.0295 21.1679 49.6199 22.0456 49.6199 23.3977V45.8639H49.6243Z" fill="white"/>
<path d="M58.7846 16.8467C57.3091 13.6771 54.7182 11.1459 51.5213 9.75837C50.6211 9.36827 49.6199 10.0376 49.6199 11.0262V17.4274C49.6199 18.1854 50.2303 18.8016 50.9856 18.8016H57.5463C58.5431 18.8016 59.2062 17.7554 58.7846 16.8467Z" fill="white"/>
<path d="M56.2464 5.31054C54.727 3.68808 52.8343 2.42025 50.7089 1.65335C50.1776 1.46273 49.6199 1.85283 49.6199 2.42469V5.87796C49.6199 6.33013 49.9844 6.69806 50.4323 6.69806H55.6624C56.3782 6.69806 56.7383 5.83807 56.2508 5.31498L56.2464 5.31054Z" fill="white"/>
<path d="M61.467 44.5832C61.467 45.5274 62.5693 46.0283 63.2719 45.4033C66.2317 42.7745 68.098 38.9223 68.098 34.6312C68.098 30.34 66.2361 26.4922 63.2807 23.8635C62.578 23.2384 61.4758 23.7394 61.4758 24.6836V44.5876L61.467 44.5832Z" fill="white"/>
<path d="M67.2272 17.6968C66.3313 15.2277 64.7812 13.0777 62.7919 11.4597C62.2605 11.0252 61.4701 11.4065 61.4701 12.098V17.985C61.4701 18.4371 61.8302 18.8051 62.2781 18.8051H66.4631C67.0252 18.8051 67.4204 18.2376 67.2228 17.7013L67.2272 17.6968Z" fill="white"/>
<path d="M65.2247 6.11318C64.3289 4.91628 63.253 3.86567 62.0322 3.00125C61.7951 2.83279 61.4701 3.01011 61.4701 3.29825V6.3304C61.4701 6.52988 61.6282 6.6939 61.8302 6.6939H64.9393C65.2335 6.68947 65.4047 6.34813 65.2291 6.10875L65.2247 6.11318Z" fill="white"/>
</svg>
